<svg id="wave" style="transform:rotate(180deg); transition: 0.3s" viewBox="0 0 1440 190" version="1.1" xmlns="http://www.w3.org/2000/svg"><defs><linearGradient id="sw-gradient-0" x1="0" x2="0" y1="1" y2="0"><stop stop-color="rgba(255, 255, 255, 1)" offset="0%"></stop><stop stop-color="rgba(255, 255, 255, 1)" offset="100%"></stop></linearGradient></defs><path style="transform:translate(0, 0px); opacity:1" fill="url(#sw-gradient-0)" d="M0,114L48,114C96,114,192,114,288,107.7C384,101,480,89,576,79.2C672,70,768,63,864,57C960,51,1056,44,1152,50.7C1248,57,1344,76,1440,85.5C1536,95,1632,95,1728,79.2C1824,63,1920,32,2016,25.3C2112,19,2208,38,2304,41.2C2400,44,2496,32,2592,44.3C2688,57,2784,95,2880,104.5C2976,114,3072,95,3168,79.2C3264,63,3360,51,3456,60.2C3552,70,3648,101,3744,110.8C3840,120,3936,108,4032,101.3C4128,95,4224,95,4320,79.2C4416,63,4512,32,4608,22.2C4704,13,4800,25,4896,47.5C4992,70,5088,101,5184,123.5C5280,146,5376,158,5472,158.3C5568,158,5664,146,5760,129.8C5856,114,5952,95,6048,95C6144,95,6240,114,6336,120.3C6432,127,6528,120,6624,110.8C6720,101,6816,89,6864,82.3L6912,76L6912,190L6864,190C6816,190,6720,190,6624,190C6528,190,6432,190,6336,190C6240,190,6144,190,6048,190C5952,190,5856,190,5760,190C5664,190,5568,190,5472,190C5376,190,5280,190,5184,190C5088,190,4992,190,4896,190C4800,190,4704,190,4608,190C4512,190,4416,190,4320,190C4224,190,4128,190,4032,190C3936,190,3840,190,3744,190C3648,190,3552,190,3456,190C3360,190,3264,190,3168,190C3072,190,2976,190,2880,190C2784,190,2688,190,2592,190C2496,190,2400,190,2304,190C2208,190,2112,190,2016,190C1920,190,1824,190,1728,190C1632,190,1536,190,1440,190C1344,190,1248,190,1152,190C1056,190,960,190,864,190C768,190,672,190,576,190C480,190,384,190,288,190C192,190,96,190,48,190L0,190Z"></path></svg>